PathFileType	4	(X/Y/Z)	/Users/niels/Desktop/University/Third Semester/Perception and Action/Exam/Gymnastics Motion Tracking/Code for Gym Tracking/Analyzed Data/Webcam_Backflip/id5_4_trajectory_Sports2D/id5_4_trajectory_Sports2D_px_person00.trc
DataRate	CameraRate	NumFrames	NumMarkers	Units	OrigDataRate	OrigDataStartFrame	OrigNumFrames
29.770992366412216	29.770992366412216	8	22	m	29.770992366412216	98	131
Frame#	Time	Hip			RHip			RKnee			RAnkle			RBigToe			RSmallToe			RHeel			LHip			LKnee			LAnkle			LBigToe			LSmallToe			LHeel			Neck			Head			Nose			RShoulder			RElbow			RWrist			LShoulder			LElbow			LWrist		
		X1	Y1	Z1	X2	Y2	Z2	X3	Y3	Z3	X4	Y4	Z4	X5	Y5	Z5	X6	Y6	Z6	X7	Y7	Z7	X8	Y8	Z8	X9	Y9	Z9	X10	Y10	Z10	X11	Y11	Z11	X12	Y12	Z12	X13	Y13	Z13	X14	Y14	Z14	X15	Y15	Z15	X16	Y16	Z16	X17	Y17	Z17	X18	Y18	Z18	X19	Y19	Z19	X20	Y20	Z20	X21	Y21	Z21	X22	Y22	Z22
98	3.2917948717948713	0.9087499943349479	-0.7482024724897027	0.0	0.9043137397930715	-0.7472764217262192	0.0	0.9637229775248943	-0.8691049334869335	0.0	0.8833346651520669	-0.9614531151138435	0.0	0.8970337662876863	-1.0166650196495168	0.0	0.8863384414922575	-1.0125308793195225	0.0	0.8630240826309059	-0.9696793037845024	0.0	0.9153279337665039	-0.745021342097006	0.0	0.9549924647026476	-0.8654579467274701	0.0	0.8833837537588515	-0.9618433467037836	0.0	0.9044128260251053	-1.0127409000078853	0.0	0.897623845390929	-1.0034832880745108	0.0	0.8659883082391931	-0.9715070957720486	0.0	0.9835105515755289	-0.599803079725521	0.0	1.044524352251642	-0.5434760641237394	0.0	1.0324606770137958	-0.5880758120454528	0.0	0.963819812419024	-0.6159200913283588	0.0	0.9489868318618365	-0.6960758293799216	0.0	0.9854739265713153	-0.7557163774382325	0.0	0.9769812474211709	-0.6095195687419829	0.0	0.9800110126547286	-0.668523407830486	0.0	1.0287997423228163	-0.6977094677942934	0.0
99	3.325384615384615	0.9195483603676151	-0.7189454032655366	0.0	0.9141291849229937	-0.717116295260504	0.0	0.9713710435177739	-0.8401233224717877	0.0	0.8909040229882853	-0.9362028185543132	0.0	0.903666613699783	-0.9971620368504982	0.0	0.8934054251401667	-0.994160927812578	0.0	0.8702584691592862	-0.9443969081094242	0.0	0.926127784288867	-0.7156983872512026	0.0	0.9567694279772481	-0.837216438777062	0.0	0.8906740148197563	-0.9385664781059924	0.0	0.9099677637958659	-0.9981207477638607	0.0	0.9049231037231765	-0.9892662135076801	0.0	0.8725664255738014	-0.9492920223495153	0.0	0.9902640109600511	-0.5696688929598638	0.0	1.051764542074983	-0.5118649989292395	0.0	1.0407051112391996	-0.5561789348565622	0.0	0.9689641717950754	-0.5862083310552275	0.0	0.9343967920727053	-0.6647066179362688	0.0	0.9497462524879455	-0.7381117471249589	0.0	0.9847512658405277	-0.5810797157535912	0.0	0.9705951104322226	-0.643799380369744	0.0	1.0121357933796615	-0.6705932628568847	0.0
100	3.3589743589743586	0.9310110233457197	-0.6936056245084651	0.0	0.9237526661379891	-0.6910466304406693	0.0	0.9785766939243127	-0.8159739493993203	0.0	0.8999037551441208	-0.9163567174000911	0.0	0.9125310978289353	-0.9804493305739868	0.0	0.9024390793858269	-0.9780539719730611	0.0	0.8793483545806865	-0.9251054851348578	0.0	0.9378023301014996	-0.6906297475834031	0.0	0.9568654586781554	-0.813988273261191	0.0	0.8987882105095715	-0.9198340480576115	0.0	0.9175748043225933	-0.9844549475755165	0.0	0.9131291967704269	-0.9756380176609076	0.0	0.8802796775325841	-0.9322802142399069	0.0	0.9969092371878184	-0.5435495218742239	0.0	1.0586023855773892	-0.48295445664058934	0.0	1.0488613617673266	-0.5274590160520349	0.0	0.9740443511675528	-0.5596998448712669	0.0	0.9228320393748227	-0.6315574915835076	0.0	0.9165352220271095	-0.711815177083649	0.0	0.9928354518165073	-0.5559808020218145	0.0	0.9642704265813605	-0.6168431118692206	0.0	0.9982919091390432	-0.6326259546938945	0.0
101	3.3925641025641022	0.9421329360301204	-0.67250394691194	0.0	0.9325614510896937	-0.6694037802045707	0.0	0.9853304957094587	-0.7968246619231412	0.0	0.9099613566315825	-0.9023248467474018	0.0	0.9236480773258433	-0.966690879464468	0.0	0.9135604743039172	-0.964837883002981	0.0	0.8900205699790046	-0.9122003358599885	0.0	0.9496268874470042	-0.6700674697989755	0.0	0.9567305337387835	-0.7958500808279668	0.0	0.9070003545863552	-0.9057901690792951	0.0	0.9267210146968871	-0.9715453205474447	0.0	0.9218551334874141	-0.9628719919517946	0.0	0.8884217121005198	-0.9200736032881028	0.0	1.003353571345543	-0.5221867029895648	0.0	1.0651719368853532	-0.4581010639601549	0.0	1.0564250448747943	-0.5034652537346653	0.0	0.9790106606508321	-0.5370638764499263	0.0	0.9149266718542524	-0.5994845020076501	0.0	0.8894226625785568	-0.6802385037126354	0.0	1.0010430413554008	-0.5347463896997623	0.0	0.9621773158150881	-0.5886900679632222	0.0	0.9886779723135153	-0.5881317136120779	0.0
102	3.426153846153846	0.9523941099974019	-0.6560171115796571	0.0	0.9405015904224876	-0.6525429074121986	0.0	0.9912814930950977	-0.7826521059525655	0.0	0.9209308797660328	-0.8939439893208005	0.0	0.9370529366259832	-0.9562240423038391	0.0	0.9267152150204415	-0.9550083052876134	0.0	0.901982518538056	-0.9051626901180154	0.0	0.9612245040358501	-0.6542782372392378	0.0	0.9580861658748185	-0.7825864825308726	0.0	0.9151387690896209	-0.8961850255236898	0.0	0.9368833538366708	-0.9600130025721489	0.0	0.9310427992277931	-0.9517237504439489	0.0	0.8967494204410145	-0.9117869283666642	0.0	1.0095274396534732	-0.5058050511512564	0.0	1.0715843985001152	-0.43830123065818755	0.0	1.0631603848067608	-0.4851331531082859	0.0	0.9838765535933692	-0.5186562723708187	0.0	0.9110103510176509	-0.5709837687633207	0.0	0.8707733153555346	-0.6468482358293418	0.0	1.0092533707437092	-0.5177397646360006	0.0	0.964544430194083	-0.5611682720538816	0.0	0.9829475401243067	-0.5463167784088077	0.0
103	3.4597435897435895	0.9617698426724159	-0.6445838120181945	0.0	0.9477889220626213	-0.6407894840353315	0.0	0.9958804145723211	-0.7734156381783984	0.0	0.9327790417758035	-0.890744519918983	0.0	0.9525966263096127	-0.9495050598679566	0.0	0.9416141134263175	-0.9489925676467841	0.0	0.9149676128275236	-0.903221598231688	0.0	0.9725259652896733	-0.6434839375388588	0.0	0.9623997338322773	-0.7739156087050241	0.0	0.9238482724774433	-0.8906838059023525	0.0	0.9479343866195358	-0.9510006068814097	0.0	0.9412027151237874	-0.9432231807195046	0.0	0.9057467641676304	-0.9068203787980341	0.0	1.0155591128530437	-0.4944134444050501	0.0	1.0779403146956266	-0.4241027665478673	0.0	1.0692919498699507	-0.4726632756131667	0.0	0.9889670534395059	-0.5047353825299697	0.0	0.9113741951717442	-0.5478860950630325	0.0	0.8619484057399893	-0.614437127426554	0.0	1.017531068104544	-0.5053268862150391	0.0	0.9707647795154317	-0.5369692070634763	0.0	0.9795151739527134	-0.5180650585818731	0.0
104	3.4933333333333327	0.9704190051411742	-0.6385317634670161	0.0	0.9546031127319033	-0.6343129245606064	0.0	0.9986771884943446	-0.7691120481361413	0.0	0.9453394783987885	-0.8922805912452922	0.0	0.9696303550221198	-0.9469360897052924	0.0	0.9575945412235747	-0.9471470016345009	0.0	0.9286983219770255	-0.9058781961233457	0.0	0.9834657611274188	-0.6377862978000721	0.0	0.970376544491331	-0.7697579321507714	0.0	0.9345278575728246	-0.8892890448773844	0.0	0.9606985128669066	-0.9456818465864252	0.0	0.9536369614327624	-0.9384061207467937	0.0	0.9166764327079484	-0.905446376487206	0.0	1.0218108946706088	-0.48801074752164325	0.0	1.0843834158856887	-0.415663759461721	0.0	1.0754039993738467	-0.46573388136083693	0.0	0.9948421809770317	-0.49560916297307955	0.0	0.916154915651226	-0.5313913460786567	0.0	0.8636086992457219	-0.5850320487538003	0.0	1.026037583669375	-0.49786582658493017	0.0	0.9798507698321822	-0.5189332234239787	0.0	0.9771286395742484	-0.5086379819448766	0.0
105	3.5269230769230764	0.9784316740272343	-0.638007277099338	0.0	0.9609717665294009	-0.6331943331379377	0.0	0.9995416594437776	-0.7698058798249242	0.0	0.958067471347343	-0.8983053979868677	0.0	0.9868801600655471	-0.9487136016674913	0.0	0.9734989408319131	-0.9497135228873356	0.0	0.9427057284140615	-0.9130118066052655	0.0	0.993825236494226	-0.6373300033974351	0.0	0.9816971905614698	-0.7703648156769747	0.0	0.948689924975586	-0.8925773149472027	0.0	0.9766475720681104	-0.9450923439731305	0.0	0.969984026887422	-0.9382934039223727	0.0	0.9311010340497408	-0.9087765549210862	0.0	1.02865953188306	-0.4866442453908384	0.0	1.0909793653247088	-0.41294314934750703	0.0	1.082046507986043	-0.4639322651274469	0.0	1.0018611360545011	-0.49166334996049815	0.0	0.9247930184464698	-0.5223482005493608	0.0	0.875616128374471	-0.5604307981233477	0.0	1.034942366992274	-0.4956573467593798	0.0	0.9908801797290062	-0.509003636938127	0.0	0.9761774350392982	-0.5142830488012174	0.0
